<svg xmlns="http://www.w3.org/2000/svg" viewBox="0 0 100 100" fill="none">

  <!-- LEFT SKELETON — amber, facing right -->

  <!-- Skull -->
  <circle cx="22" cy="11" r="8" fill="#f59e0b"/>
  <ellipse cx="19.2" cy="10" rx="2.2" ry="2.5" fill="#12141c"/>
  <ellipse cx="24.8" cy="10" rx="2.2" ry="2.5" fill="#12141c"/>
  <path d="M21,14 L23,14 L22,16.5 Z" fill="#12141c" opacity="0.7"/>
  <line x1="18" y1="17.5" x2="26" y2="17.5" stroke="#12141c" stroke-width="0.5" opacity="0.5"/>
  <line x1="20" y1="17.5" x2="20" y2="19.5" stroke="#f59e0b" stroke-width="0.7"/>
  <line x1="22" y1="17.5" x2="22" y2="19.5" stroke="#f59e0b" stroke-width="0.7"/>
  <line x1="24" y1="17.5" x2="24" y2="19.5" stroke="#f59e0b" stroke-width="0.7"/>

  <!-- Spine -->
  <line x1="22" y1="19" x2="22" y2="50" stroke="#f59e0b" stroke-width="2"/>

  <!-- Shoulders -->
  <line x1="13" y1="23" x2="31" y2="23" stroke="#f59e0b" stroke-width="1.8"/>

  <!-- Ribs -->
  <path d="M22,26 Q17,28 15,32" stroke="#f59e0b" stroke-width="1.1" stroke-linecap="round"/>
  <path d="M22,26 Q27,24 30,27" stroke="#f59e0b" stroke-width="1.1" stroke-linecap="round"/>
  <path d="M22,31 Q17,33 15,37" stroke="#f59e0b" stroke-width="1.1" stroke-linecap="round"/>
  <path d="M22,31 Q27,29 30,32" stroke="#f59e0b" stroke-width="1.1" stroke-linecap="round"/>
  <path d="M22,36 Q17,38 15,42" stroke="#f59e0b" stroke-width="1.1" stroke-linecap="round"/>
  <path d="M22,36 Q27,34 29,37" stroke="#f59e0b" stroke-width="1.1" stroke-linecap="round"/>

  <!-- Pelvis -->
  <path d="M14,52 Q22,48 30,52 Q31,57 22,58 Q13,57 14,52 Z" stroke="#f59e0b" stroke-width="1.4"/>

  <!-- Back arm -->
  <line x1="13" y1="23" x2="7" y2="36" stroke="#f59e0b" stroke-width="1.4" stroke-linecap="round"/>
  <line x1="7" y1="36" x2="4" y2="50" stroke="#f59e0b" stroke-width="1.4" stroke-linecap="round"/>
  <circle cx="4" cy="52" r="1.8" fill="#f59e0b"/>

  <!-- Guitar arm -->
  <line x1="31" y1="23" x2="36" y2="17" stroke="#f59e0b" stroke-width="1.4" stroke-linecap="round"/>
  <line x1="36" y1="17" x2="40" y2="12" stroke="#f59e0b" stroke-width="1.4" stroke-linecap="round"/>
  <circle cx="41" cy="11" r="2" fill="#f59e0b"/>

  <!-- Guitar neck + headstock -->
  <line x1="41" y1="11" x2="56" y2="2" stroke="#f59e0b" stroke-width="2.5" stroke-linecap="round"/>
  <circle cx="55" cy="5" r="1.9" fill="#f59e0b"/>
  <circle cx="52" cy="8" r="1.9" fill="#f59e0b"/>
  <circle cx="49" cy="11" r="1.9" fill="#f59e0b"/>

  <!-- Guitar body (figure-8) -->
  <ellipse cx="35" cy="23" rx="5.5" ry="6" fill="#f59e0b"/>
  <ellipse cx="35" cy="35" rx="7" ry="7.5" fill="#f59e0b"/>
  <rect x="29" y="27" width="12" height="10" fill="#f59e0b"/>
  <circle cx="35" cy="31" r="3" fill="#12141c" opacity="0.45"/>

  <!-- Legs -->
  <line x1="18" y1="58" x2="13" y2="72" stroke="#f59e0b" stroke-width="1.5" stroke-linecap="round"/>
  <line x1="13" y1="72" x2="9" y2="85" stroke="#f59e0b" stroke-width="1.5" stroke-linecap="round"/>
  <line x1="9" y1="85" x2="2" y2="87" stroke="#f59e0b" stroke-width="2.2" stroke-linecap="round"/>
  <line x1="26" y1="58" x2="31" y2="71" stroke="#f59e0b" stroke-width="1.5" stroke-linecap="round"/>
  <line x1="31" y1="71" x2="35" y2="83" stroke="#f59e0b" stroke-width="1.5" stroke-linecap="round"/>
  <line x1="35" y1="83" x2="43" y2="85" stroke="#f59e0b" stroke-width="2.2" stroke-linecap="round"/>


  <!-- RIGHT SKELETON — off-white, facing left (mirrored over x=50) -->

  <!-- Skull -->
  <circle cx="78" cy="11" r="8" fill="#f0ebe0"/>
  <ellipse cx="75.2" cy="10" rx="2.2" ry="2.5" fill="#12141c"/>
  <ellipse cx="80.8" cy="10" rx="2.2" ry="2.5" fill="#12141c"/>
  <path d="M77,14 L79,14 L78,16.5 Z" fill="#12141c" opacity="0.7"/>
  <line x1="74" y1="17.5" x2="82" y2="17.5" stroke="#12141c" stroke-width="0.5" opacity="0.5"/>
  <line x1="76" y1="17.5" x2="76" y2="19.5" stroke="#f0ebe0" stroke-width="0.7"/>
  <line x1="78" y1="17.5" x2="78" y2="19.5" stroke="#f0ebe0" stroke-width="0.7"/>
  <line x1="80" y1="17.5" x2="80" y2="19.5" stroke="#f0ebe0" stroke-width="0.7"/>

  <!-- Spine -->
  <line x1="78" y1="19" x2="78" y2="50" stroke="#f0ebe0" stroke-width="2"/>

  <!-- Shoulders -->
  <line x1="69" y1="23" x2="87" y2="23" stroke="#f0ebe0" stroke-width="1.8"/>

  <!-- Ribs -->
  <path d="M78,26 Q83,24 85,27" stroke="#f0ebe0" stroke-width="1.1" stroke-linecap="round"/>
  <path d="M78,26 Q73,28 70,32" stroke="#f0ebe0" stroke-width="1.1" stroke-linecap="round"/>
  <path d="M78,31 Q83,29 85,32" stroke="#f0ebe0" stroke-width="1.1" stroke-linecap="round"/>
  <path d="M78,31 Q73,33 70,37" stroke="#f0ebe0" stroke-width="1.1" stroke-linecap="round"/>
  <path d="M78,36 Q83,34 85,37" stroke="#f0ebe0" stroke-width="1.1" stroke-linecap="round"/>
  <path d="M78,36 Q73,38 71,42" stroke="#f0ebe0" stroke-width="1.1" stroke-linecap="round"/>

  <!-- Pelvis -->
  <path d="M70,52 Q78,48 86,52 Q87,57 78,58 Q69,57 70,52 Z" stroke="#f0ebe0" stroke-width="1.4"/>

  <!-- Back arm -->
  <line x1="87" y1="23" x2="93" y2="36" stroke="#f0ebe0" stroke-width="1.4" stroke-linecap="round"/>
  <line x1="93" y1="36" x2="96" y2="50" stroke="#f0ebe0" stroke-width="1.4" stroke-linecap="round"/>
  <circle cx="96" cy="52" r="1.8" fill="#f0ebe0"/>

  <!-- Guitar arm -->
  <line x1="69" y1="23" x2="64" y2="17" stroke="#f0ebe0" stroke-width="1.4" stroke-linecap="round"/>
  <line x1="64" y1="17" x2="60" y2="12" stroke="#f0ebe0" stroke-width="1.4" stroke-linecap="round"/>
  <circle cx="59" cy="11" r="2" fill="#f0ebe0"/>

  <!-- Guitar neck + headstock -->
  <line x1="59" y1="11" x2="44" y2="2" stroke="#f0ebe0" stroke-width="2.5" stroke-linecap="round"/>
  <circle cx="45" cy="5" r="1.9" fill="#f0ebe0"/>
  <circle cx="48" cy="8" r="1.9" fill="#f0ebe0"/>
  <circle cx="51" cy="11" r="1.9" fill="#f0ebe0"/>

  <!-- Guitar body (figure-8, mirrored) -->
  <ellipse cx="65" cy="23" rx="5.5" ry="6" fill="#f0ebe0"/>
  <ellipse cx="65" cy="35" rx="7" ry="7.5" fill="#f0ebe0"/>
  <rect x="59" y="27" width="12" height="10" fill="#f0ebe0"/>
  <circle cx="65" cy="31" r="3" fill="#12141c" opacity="0.45"/>

  <!-- Legs -->
  <line x1="82" y1="58" x2="87" y2="72" stroke="#f0ebe0" stroke-width="1.5" stroke-linecap="round"/>
  <line x1="87" y1="72" x2="91" y2="85" stroke="#f0ebe0" stroke-width="1.5" stroke-linecap="round"/>
  <line x1="91" y1="85" x2="98" y2="87" stroke="#f0ebe0" stroke-width="2.2" stroke-linecap="round"/>
  <line x1="74" y1="58" x2="69" y2="71" stroke="#f0ebe0" stroke-width="1.5" stroke-linecap="round"/>
  <line x1="69" y1="71" x2="65" y2="83" stroke="#f0ebe0" stroke-width="1.5" stroke-linecap="round"/>
  <line x1="65" y1="83" x2="57" y2="85" stroke="#f0ebe0" stroke-width="2.2" stroke-linecap="round"/>

</svg>
